####
#
# OBJ File Generated by Meshlab
#
####
# Object dex_cube_mod.obj
#
# Vertices: 8
# Faces: 12
#
####
mtllib ./dex_cube_mod.mtl

vn -0.577350 -0.577350 0.577350
v -0.030000 -0.030000 0.030000
vn -0.577350 0.577350 0.577350
v -0.030000 0.030000 0.030000
vn -0.577350 0.577350 -0.577350
v -0.030000 0.030000 -0.030000
vn -0.577350 -0.577350 -0.577350
v -0.030000 -0.030000 -0.030000
vn 0.577350 0.577350 -0.577350
v 0.030000 0.030000 -0.030000
vn 0.577350 -0.577350 -0.577350
v 0.030000 -0.030000 -0.030000
vn 0.577350 0.577350 0.577350
v 0.030000 0.030000 0.030000
vn 0.577350 -0.577350 0.577350
v 0.030000 -0.030000 0.030000
# 8 vertices, 0 vertices normals


usemtl material_0
vt 1.000000 0.333333
vt 1.000000 0.666667
vt 0.500000 0.666667
f 1/1/1 2/2/2 3/3/3
vt 0.500000 0.333333
f 1/1/1 3/3/3 4/4/4
vt 0.500000 1.000000
vt 0.000000 1.000000
f 4/3/4 3/5/3 5/6/5
vt -0.000000 0.666667
f 4/3/4 5/6/5 6/7/6
f 6/4/6 5/3/5 7/7/7
vt -0.000000 0.333333
f 6/4/6 7/7/7 8/8/8
vt 1.000000 -0.000000
f 8/9/8 7/1/7 2/4/2
vt 0.500000 0.000000
f 8/9/8 2/4/2 1/10/1
f 4/10/4 6/4/6 8/8/8
vt 0.000000 0.000000
f 4/10/4 8/8/8 1/11/1
vt 1.000000 1.000000
f 5/2/5 3/12/3 2/5/2
f 5/2/5 2/5/2 7/3/7
# 12 faces, 12 coords texture

# End of File
